<svg width="35" height="34" viewBox="0 0 35 34" fill="none" xmlns="http://www.w3.org/2000/svg">
<path d="M4.375 17C4.375 9.95837 10.0834 4.25 17.125 4.25H17.875C24.9166 4.25 30.625 9.95837 30.625 17C30.625 24.0416 24.9166 29.75 17.875 29.75H17.125C10.0834 29.75 4.375 24.0416 4.375 17Z" fill="#7E869E" fill-opacity="0.25"/>
<ellipse cx="17.5" cy="14.1667" rx="5.83333" ry="5.66667" fill="#222222"/>
<path fill-rule="evenodd" clip-rule="evenodd" d="M26.6554 25.9858C26.7134 26.0834 26.6951 26.2077 26.6125 26.2854C24.3304 28.4337 21.2565 29.75 17.875 29.75H17.125C13.7436 29.75 10.6697 28.4337 8.38763 26.2856C8.30501 26.2078 8.28675 26.0835 8.34472 25.986C10.012 23.1797 13.4854 21.25 17.5001 21.25C21.5148 21.25 24.9881 23.1797 26.6554 25.9858Z" fill="#222222"/>
</svg>
