<svg width="30" height="34" viewBox="0 0 30 34" fill="none" xmlns="http://www.w3.org/2000/svg">
<path fill-rule="evenodd" clip-rule="evenodd" d="M22 0.619423V26.419C22 26.8002 21.5905 27.0412 21.2572 26.8561L16.9856 24.4831C16.6836 24.3153 16.3164 24.3153 16.0144 24.4831L11.777 26.8371C11.2938 27.1055 10.7062 27.1055 10.223 26.8371L5.98563 24.4831C5.68361 24.3153 5.31639 24.3153 5.01437 24.4831L0.742816 26.8561C0.40955 27.0412 0 26.8002 0 26.419V0.619423C0 0.238184 0.40955 -0.00279994 0.742815 0.182341L5.01437 2.55535C5.31638 2.72313 5.68361 2.72313 5.98563 2.55535L10.223 0.201337C10.7062 -0.0671122 11.2938 -0.0671126 11.777 0.201337L16.0144 2.55535C16.3164 2.72313 16.6836 2.72313 16.9856 2.55535L21.2572 0.182342C21.5904 -0.00279953 22 0.238184 22 0.619423ZM7.07143 9.1999C6.79529 9.1999 6.57143 9.42376 6.57143 9.6999C6.57143 9.97604 6.79529 10.1999 7.07143 10.1999H14.9286C15.2047 10.1999 15.4286 9.97604 15.4286 9.6999C15.4286 9.42376 15.2047 9.1999 14.9286 9.1999H7.07143ZM7.07143 13.0192C6.79529 13.0192 6.57143 13.2431 6.57143 13.5192C6.57143 13.7954 6.79529 14.0192 7.07143 14.0192H14.9286C15.2047 14.0192 15.4286 13.7954 15.4286 13.5192C15.4286 13.2431 15.2047 13.0192 14.9286 13.0192H7.07143ZM7.07143 16.8385C6.79529 16.8385 6.57143 17.0624 6.57143 17.3385C6.57143 17.6147 6.79529 17.8385 7.07143 17.8385H14.9286C15.2047 17.8385 15.4286 17.6147 15.4286 17.3385C15.4286 17.0624 15.2047 16.8385 14.9286 16.8385H7.07143Z" fill="#222222"/>
</svg>
