<svg width="30" height="27" viewBox="0 0 30 27" fill="none" xmlns="http://www.w3.org/2000/svg">
<path d="M3.75 11C3.75 10.0572 3.75 9.58579 4.04289 9.29289C4.33579 9 4.80719 9 5.75 9H24.25C25.1928 9 25.6642 9 25.9571 9.29289C26.25 9.58579 26.25 10.0572 26.25 11V12.75C26.25 13.5719 26.25 13.9828 26.023 14.2594C25.9815 14.31 25.935 14.3565 25.8844 14.398C25.6078 14.625 25.1969 14.625 24.375 14.625C23.5531 14.625 23.1422 14.625 22.8656 14.852C22.815 14.8935 22.7685 14.94 22.727 14.9906C22.5 15.2672 22.5 15.6781 22.5 16.5V20.5C22.5 21.4428 22.5 21.9142 22.2071 22.2071C21.9142 22.5 21.4428 22.5 20.5 22.5H9.5C8.55719 22.5 8.08579 22.5 7.79289 22.2071C7.5 21.9142 7.5 21.4428 7.5 20.5V16.5C7.5 15.6781 7.5 15.2672 7.27301 14.9906C7.23146 14.94 7.18503 14.8935 7.13439 14.852C6.85781 14.625 6.44687 14.625 5.625 14.625C4.80313 14.625 4.39219 14.625 4.11561 14.398C4.06497 14.3565 4.01854 14.31 3.97699 14.2594C3.75 13.9828 3.75 13.5719 3.75 12.75V11Z" fill="#7C9CF9"/>
<path d="M3.75 11C3.75 10.0572 3.75 9.58579 4.04289 9.29289C4.33579 9 4.80719 9 5.75 9H24.25C25.1928 9 25.6642 9 25.9571 9.29289C26.25 9.58579 26.25 10.0572 26.25 11V12.75C26.25 13.5719 26.25 13.9828 26.023 14.2594C25.9815 14.31 25.935 14.3565 25.8844 14.398C25.6078 14.625 25.1969 14.625 24.375 14.625V14.625C23.5531 14.625 23.1422 14.625 22.8656 14.852C22.815 14.8935 22.7685 14.94 22.727 14.9906C22.5 15.2672 22.5 15.6781 22.5 16.5V20.5C22.5 21.4428 22.5 21.9142 22.2071 22.2071C21.9142 22.5 21.4428 22.5 20.5 22.5H9.5C8.55719 22.5 8.08579 22.5 7.79289 22.2071C7.5 21.9142 7.5 21.4428 7.5 20.5V16.5C7.5 15.6781 7.5 15.2672 7.27301 14.9906C7.23146 14.94 7.18503 14.8935 7.13439 14.852C6.85781 14.625 6.44687 14.625 5.625 14.625V14.625C4.80313 14.625 4.39219 14.625 4.11561 14.398C4.06497 14.3565 4.01854 14.31 3.97699 14.2594C3.75 13.9828 3.75 13.5719 3.75 12.75V11Z" stroke="#222222" stroke-width="1.2"/>
<path d="M6.25 14.625H23.75" stroke="#222222" stroke-width="1.2" stroke-linecap="round"/>
<path d="M15 7.875L15 22.5" stroke="#222222" stroke-width="1.2" stroke-linecap="round"/>
<path d="M15 7.875L13.7092 6.71328C12.5014 5.62627 11.0678 4.82034 9.51141 4.35342L8.8247 4.14741C7.54147 3.76244 6.25 4.72334 6.25 6.06306V6.38694C6.25 7.27016 6.82934 8.0488 7.6753 8.30259L10 9" stroke="#222222" stroke-width="1.2" stroke-linecap="round"/>
<path d="M15 7.875L16.2908 6.71328C17.4986 5.62627 18.9322 4.82034 20.4886 4.35342L21.1753 4.14741C22.4585 3.76244 23.75 4.72334 23.75 6.06306V6.38694C23.75 7.27015 23.1707 8.0488 22.3247 8.30259L20 9" stroke="#222222" stroke-width="1.2" stroke-linecap="round"/>
</svg>
