<svg width="35" height="34" viewBox="0 0 35 34" fill="none" xmlns="http://www.w3.org/2000/svg">
<path d="M4.375 13.3333C4.375 12.3904 4.375 11.919 4.66789 11.6261C4.96079 11.3333 5.43219 11.3333 6.375 11.3333H28.625C29.5678 11.3333 30.0392 11.3333 30.3321 11.6261C30.625 11.919 30.625 12.3904 30.625 13.3333V16.4166C30.625 17.3594 30.625 17.8308 30.3321 18.1237C30.0392 18.4166 29.5678 18.4166 28.625 18.4166H28.25C27.3072 18.4166 26.8358 18.4166 26.5429 18.7095C26.25 19.0024 26.25 19.4738 26.25 20.4166V26.3332C26.25 27.2761 26.25 27.7475 25.9571 28.0404C25.6642 28.3333 25.1928 28.3333 24.25 28.3333H10.75C9.80719 28.3333 9.33579 28.3333 9.04289 28.0404C8.75 27.7475 8.75 27.2761 8.75 26.3333V20.4166C8.75 19.4738 8.75 19.0024 8.45711 18.7095C8.16421 18.4166 7.69281 18.4166 6.75 18.4166H6.375C5.43219 18.4166 4.96079 18.4166 4.66789 18.1237C4.375 17.8308 4.375 17.3594 4.375 16.4166V13.3333Z" fill="#7C9CF9"/>
<path d="M4.375 13.3333C4.375 12.3904 4.375 11.919 4.66789 11.6261C4.96079 11.3333 5.43219 11.3333 6.375 11.3333H28.625C29.5678 11.3333 30.0392 11.3333 30.3321 11.6261C30.625 11.919 30.625 12.3904 30.625 13.3333V16.4166C30.625 17.3594 30.625 17.8308 30.3321 18.1237C30.0392 18.4166 29.5678 18.4166 28.625 18.4166H28.25C27.3072 18.4166 26.8358 18.4166 26.5429 18.7095C26.25 19.0024 26.25 19.4738 26.25 20.4166V26.3332C26.25 27.2761 26.25 27.7475 25.9571 28.0404C25.6642 28.3333 25.1928 28.3333 24.25 28.3333H10.75C9.80719 28.3333 9.33579 28.3333 9.04289 28.0404C8.75 27.7475 8.75 27.2761 8.75 26.3333V20.4166C8.75 19.4738 8.75 19.0024 8.45711 18.7095C8.16421 18.4166 7.69281 18.4166 6.75 18.4166H6.375C5.43219 18.4166 4.96079 18.4166 4.66789 18.1237C4.375 17.8308 4.375 17.3594 4.375 16.4166V13.3333Z" stroke="#222222" stroke-width="1.2"/>
<path d="M7.29166 18.4167H27.7083" stroke="#222222" stroke-width="1.2" stroke-linecap="round"/>
<path d="M17.5 9.91675L17.5 28.3334" stroke="#222222" stroke-width="1.2" stroke-linecap="round"/>
<path d="M17.5 9.91667L15.6922 8.16054C14.483 6.98591 13.02 6.10491 11.4162 5.58558L9.90778 5.09712C8.61592 4.67881 7.29166 5.64197 7.29166 6.99986V8.46205C7.29166 9.32924 7.85052 10.0976 8.67553 10.3648L11.6667 11.3333" stroke="#222222" stroke-width="1.2" stroke-linecap="round"/>
<path d="M17.5 9.91667L19.3078 8.16054C20.5169 6.98591 21.9799 6.10491 23.5837 5.58558L25.0922 5.09712C26.384 4.67881 27.7083 5.64197 27.7083 6.99986V8.46205C27.7083 9.32924 27.1495 10.0976 26.3244 10.3648L23.3333 11.3333" stroke="#222222" stroke-width="1.2" stroke-linecap="round"/>
</svg>
