<svg width="27" height="29" viewBox="0 0 27 29" fill="none" xmlns="http://www.w3.org/2000/svg">
<path fill-rule="evenodd" clip-rule="evenodd" d="M7.88235 7.66659H10.1251C11.2296 7.66659 12.1251 8.56202 12.1251 9.66658C12.1251 10.7712 11.2296 11.6666 10.1251 11.6666H7.87506V13.7083H10.1251C11.2296 13.7083 12.1251 14.6037 12.1251 15.7083C12.1251 16.8128 11.2296 17.7083 10.1251 17.7083H7.87506V19.7499H10.1251C11.2296 19.7499 12.1251 20.6453 12.1251 21.7499C12.1251 22.8545 11.2296 23.7499 10.1251 23.7499H7.97636C8.05688 24.2003 8.20142 24.5297 8.46084 24.7891C9.04663 25.3749 9.98944 25.3749 11.8751 25.3749H18.5001C20.3857 25.3749 21.3285 25.3749 21.9143 24.7891C22.5001 24.2033 22.5001 23.2605 22.5001 21.3749V8.83325C22.5001 6.94763 22.5001 6.00482 21.9143 5.41904C21.3285 4.83325 20.3857 4.83325 18.5001 4.83325H11.8751C9.98944 4.83325 9.04663 4.83325 8.46084 5.41904C8.01085 5.86903 7.90654 6.5297 7.88235 7.66659ZM18 13.0833C17.4477 13.0833 17 12.6355 17 12.0833V9.66658C17 9.1143 17.4477 8.66658 18 8.66658C18.5523 8.66658 19 9.1143 19 9.66658V12.0833C19 12.6355 18.5523 13.0833 18 13.0833ZM5.625 8.66659C5.07272 8.66659 4.625 9.1143 4.625 9.66658C4.625 10.2189 5.07272 10.6666 5.625 10.6666H10.125C10.6773 10.6666 11.125 10.2189 11.125 9.66658C11.125 9.1143 10.6773 8.66659 10.125 8.66659H5.625ZM5.625 14.7083C5.07272 14.7083 4.625 15.156 4.625 15.7083C4.625 16.2605 5.07272 16.7083 5.625 16.7083H10.125C10.6773 16.7083 11.125 16.2605 11.125 15.7083C11.125 15.156 10.6773 14.7083 10.125 14.7083H5.625ZM5.625 20.7499C5.07272 20.7499 4.625 21.1976 4.625 21.7499C4.625 22.3022 5.07272 22.7499 5.625 22.7499H10.125C10.6773 22.7499 11.125 22.3022 11.125 21.7499C11.125 21.1976 10.6773 20.7499 10.125 20.7499H5.625Z" fill="#222222"/>
</svg>
