<svg width="24" height="23" viewBox="0 0 24 23" fill="none" xmlns="http://www.w3.org/2000/svg">
<path d="M14.4381 4.47339e-06C16.6324 0.00741536 18.7579 0.736144 20.4602 2.06465C22.1625 3.39316 23.3386 5.24114 23.7925 7.30039C24.2464 9.35963 23.9505 11.5057 22.9543 13.3805C21.958 15.2554 20.3216 16.7458 18.318 17.6032C17.6734 18.9566 16.6961 20.1397 15.47 21.0511C14.2438 21.9625 12.8054 22.575 11.2781 22.836C9.75074 23.097 8.18007 22.9987 6.70077 22.5497C5.22148 22.1006 3.8777 21.3142 2.78468 20.2577C1.69167 19.2013 0.882037 17.9064 0.425226 16.4841C-0.0315848 15.0619 -0.121943 13.5547 0.161901 12.0918C0.445745 10.6289 1.09532 9.25397 2.05492 8.08496C3.01451 6.91594 4.25549 5.9877 5.67143 5.37986C6.43799 3.76909 7.67281 2.40477 9.22778 1.45054C10.7828 0.496295 12.5919 -0.00735005 14.4381 4.47339e-06ZM10.8101 8.03672L8.41196 8.02752L8.40755 9.1776C7.6283 9.17279 6.87783 9.45922 6.31519 9.97618C5.75256 10.4931 5.42199 11.2 5.39355 11.9469C5.36512 12.6938 5.64105 13.4221 6.16286 13.9774C6.68467 14.5326 7.41135 14.8713 8.18887 14.9215L8.38549 14.928L10.7836 14.9372L10.8915 14.9468C11.0296 14.9713 11.1544 15.0416 11.2441 15.1454C11.3337 15.2491 11.3825 15.3798 11.382 15.5145C11.3815 15.6492 11.3317 15.7795 11.2412 15.8826C11.1508 15.9856 11.0255 16.055 10.8871 16.0784L10.7792 16.0872L5.98296 16.0688L5.97414 18.369L8.37226 18.3782L8.36785 19.5283L10.766 19.5375L10.7704 18.3874C11.5496 18.3922 12.3001 18.1058 12.8627 17.5888C13.4254 17.0718 13.7559 16.365 13.7844 15.6181C13.8128 14.8712 13.5369 14.1429 13.0151 13.5876C12.4932 13.0323 11.7666 12.6937 10.9891 12.6435L10.7924 12.637L8.39431 12.6278L8.28643 12.6182C8.14829 12.5937 8.02351 12.5234 7.93386 12.4196C7.8442 12.3159 7.79537 12.1852 7.79589 12.0505C7.79641 11.9157 7.84624 11.7855 7.93668 11.6824C8.02713 11.5793 8.15245 11.51 8.29077 11.4865L8.39872 11.4777L13.195 11.4961L13.2038 9.19599L10.8057 9.18679L10.8101 8.03672ZM14.4293 2.30015C13.4133 2.29511 12.4079 2.49705 11.4795 2.89259C10.5511 3.28813 9.72091 3.86827 9.04384 4.59463C10.3994 4.52091 11.7559 4.72406 13.0237 5.19063C14.2915 5.65719 15.4416 6.37655 16.3981 7.30114C17.3546 8.22573 18.0956 9.33447 18.5722 10.5541C19.0487 11.7736 19.2499 13.0763 19.1625 14.3758C20.2563 13.4503 21.0308 12.2277 21.3832 10.87C21.7357 9.51241 21.6495 8.08394 21.1361 6.7741C20.6227 5.46426 19.7063 4.33493 18.5085 3.53591C17.3107 2.73688 15.8881 2.30591 14.4293 2.30015Z" fill="#09121F"/>
</svg>
